<?xml version="1.0" encoding="UTF-8"?>
<svg version="1.1" xmlns="http://www.w3.org/2000/svg" width="256" height="256">
<path d="M0 0 C84.48 0 168.96 0 256 0 C256 84.48 256 168.96 256 256 C171.52 256 87.04 256 0 256 C0 171.52 0 87.04 0 0 Z " fill="#0C3B43" transform="translate(0,0)"/>
<path d="M0 0 C5.9195518 3.33088267 10.37427418 8.11940873 15.1171875 12.921875 C16.4029216 14.21185394 16.4029216 14.21185394 17.71463013 15.52789307 C20.43950106 18.26391992 23.15731821 21.00683393 25.875 23.75 C27.72610075 25.61113645 29.57765824 27.47181876 31.4296875 29.33203125 C35.9584295 33.88277276 40.48140685 38.43918238 45 43 C48.35196312 41.54454619 50.53200551 39.70664227 53.09423828 37.11694336 C53.88831085 36.31949203 54.68238342 35.52204071 55.5005188 34.70042419 C56.77256668 33.40818687 56.77256668 33.40818687 58.0703125 32.08984375 C58.94775116 31.20720352 59.82518982 30.32456329 60.72921753 29.41517639 C63.05652696 27.07307161 65.37971267 24.72698316 67.70056152 22.378479 C70.97669315 19.06430506 74.25806718 15.75535053 77.54220581 12.44911194 C79.29001251 10.68901146 81.03513975 8.92624555 82.77737427 7.16062927 C83.56514252 6.36633011 84.35291077 5.57203094 85.16455078 4.75366211 C85.85864044 4.05131943 86.5527301 3.34897675 87.26785278 2.62535095 C90.13723906 -0.06712211 92.56339852 -0.44218288 96.48144531 -0.38818359 C101.99595973 0.4617658 106.91505426 3.24475536 111.875 5.6875 C113.01453125 6.21794922 114.1540625 6.74839844 115.328125 7.29492188 C116.41351563 7.82021484 117.49890625 8.34550781 118.6171875 8.88671875 C119.60315918 9.36326904 120.58913086 9.83981934 121.60498047 10.33081055 C124.61743221 12.43031437 124.97938238 13.47723464 126 17 C126.29005766 20.19285545 126.28347976 23.37184957 126.2746582 26.57617188 C126.27976913 27.53447403 126.28488007 28.49277618 126.29014587 29.4801178 C126.30402903 32.64305898 126.30308626 35.805782 126.30078125 38.96875 C126.30466843 41.16923097 126.30900315 43.36971118 126.31376648 45.57019043 C126.32122562 50.18011916 126.32093927 54.78997129 126.31567383 59.39990234 C126.3098749 65.30819401 126.32682208 71.21617264 126.3500185 77.12441254 C126.36474624 81.66772292 126.36562892 86.2109577 126.36250877 90.75428772 C126.36302231 92.93279135 126.36826612 95.11129918 126.37832069 97.28977966 C126.39065106 100.33466998 126.38391397 103.37894768 126.37231445 106.42382812 C126.37995819 107.32371964 126.38760193 108.22361115 126.39547729 109.15077209 C126.35518504 113.93374873 126.10090655 117.11199496 123 121 C119.89966897 123.66341179 116.42423285 125.77470279 113 128 C111.94554687 128.73476562 110.89109375 129.46953125 109.8046875 130.2265625 C108.16886719 131.32097656 108.16886719 131.32097656 106.5 132.4375 C105.4996875 133.11683594 104.499375 133.79617187 103.46875 134.49609375 C98.76332094 136.53617279 95.04776901 137.15762819 90 136 C86.00899508 133.3778426 82.88671708 130.05310794 79.6171875 126.59375 C78.66962129 125.62750512 77.71980247 124.66346464 76.76785278 123.70153809 C74.28242356 121.17813994 71.8285041 118.62618662 69.38018799 116.0668335 C66.87094305 113.45482155 64.33272374 110.87130089 61.796875 108.28515625 C56.83603717 103.21745016 51.90796396 98.11897378 47 93 C43.64803688 94.45545381 41.46799449 96.29335773 38.90576172 98.88305664 C38.11168915 99.68050797 37.31761658 100.47795929 36.4994812 101.29957581 C35.22743332 102.59181313 35.22743332 102.59181313 33.9296875 103.91015625 C33.05224884 104.79279648 32.17481018 105.67543671 31.27078247 106.58482361 C28.94347304 108.92692839 26.62028733 111.27301684 24.29943848 113.621521 C21.02330685 116.93569494 17.74193282 120.24464947 14.45779419 123.55088806 C12.70998749 125.31098854 10.96486025 127.07375445 9.22262573 128.83937073 C8.43485748 129.63366989 7.64708923 130.42796906 6.83544922 131.24633789 C6.14135956 131.94868057 5.4472699 132.65102325 4.73214722 133.37464905 C1.5019183 136.40571685 -1.29183526 136.37424984 -5.56201172 136.32128906 C-9.71532332 135.77394698 -12.67051326 133.71913043 -16.0625 131.375 C-16.75424316 130.91931641 -17.44598633 130.46363281 -18.15869141 129.99414062 C-29.62990271 122.37009729 -29.62990271 122.37009729 -34 118 C-34.25726891 116.19330978 -34.25726891 116.19330978 -34.26742554 113.96551514 C-34.27595551 113.12160721 -34.28448547 112.27769928 -34.29327393 111.40821838 C-34.29236755 110.48041061 -34.29146118 109.55260284 -34.29052734 108.59667969 C-34.30060318 107.1330323 -34.30060318 107.1330323 -34.31088257 105.63981628 C-34.32994523 102.40045129 -34.33379129 99.16129266 -34.3359375 95.921875 C-34.34236098 93.67466139 -34.34908899 91.42744864 -34.35610962 89.18023682 C-34.36810399 84.46242332 -34.37178835 79.74468315 -34.37060547 75.02685547 C-34.37040246 68.98286214 -34.39767706 62.93933997 -34.43214989 56.89545822 C-34.45439751 52.25087325 -34.45844362 47.6064019 -34.45738602 42.9617691 C-34.45974625 40.73384226 -34.46859347 38.50591249 -34.48405075 36.27803802 C-34.50366169 33.15865749 -34.49789082 30.04029562 -34.48583984 26.92089844 C-34.49707886 26.00118759 -34.50831787 25.08147675 -34.51989746 24.13389587 C-34.46559741 18.59845249 -33.73271978 15.37023457 -30 11 C-27.5456543 9.30908203 -27.5456543 9.30908203 -24.82421875 8.0078125 C-23.83099609 7.53085938 -22.83777344 7.05390625 -21.81445312 6.5625 C-20.78255859 6.088125 -19.75066406 5.61375 -18.6875 5.125 C-17.66720703 4.62742187 -16.64691406 4.12984375 -15.59570312 3.6171875 C-5.7089349 -1.03540931 -5.7089349 -1.03540931 0 0 Z " fill="#79E9BE" transform="translate(82,60)"/>
<path d="M0 0 C6.36508567 5.24820057 12.15322975 11.02471452 17.96484375 16.8671875 C19.00837079 17.91258325 20.05212152 18.95775575 21.09608459 20.00271606 C23.82230745 22.7327284 26.54551181 25.46573193 29.26806641 28.19940186 C32.05512459 30.99675154 34.84507146 33.79121701 37.63476562 36.5859375 C43.09265081 42.05449694 48.54734559 47.52622445 54 53 C52.34699265 56.51084156 50.46260282 58.75749433 47.67578125 61.484375 C46.37930664 62.76441406 46.37930664 62.76441406 45.05664062 64.0703125 C44.15107422 64.95460938 43.24550781 65.83890625 42.3125 66.75 C36.9701741 71.98742205 31.74015743 77.21256295 26.87426758 82.89648438 C22.84842618 87.41474014 18.48430805 91.61674164 14.1875 95.875 C13.22437328 96.83309606 12.2614812 97.79142804 11.29882812 98.75 C8.8679802 101.16878844 6.43425734 103.58464444 4 106 C3.01 106.99 3.01 106.99 2 108 C-0.36917044 106.32187584 -1.82111638 104.94244417 -2.37467575 102.02602959 C-2.50758341 99.45086058 -2.51715832 96.90053406 -2.48583984 94.32202148 C-2.48963654 93.34114563 -2.49343323 92.36026978 -2.49734497 91.34967041 C-2.50475626 88.10648658 -2.48336079 84.864198 -2.4609375 81.62109375 C-2.45855351 79.36955368 -2.45764766 77.11801161 -2.4581604 74.86647034 C-2.45503148 70.1479141 -2.43845762 65.4296615 -2.41162109 60.71118164 C-2.37762183 54.65585126 -2.36999302 48.60085437 -2.37151146 42.54543972 C-2.37096825 37.89668073 -2.36000927 33.24799499 -2.34550858 28.59926033 C-2.33913434 26.36608497 -2.33520022 24.1329013 -2.33372116 21.89971733 C-2.32939596 18.78252832 -2.31191213 15.66569654 -2.29052734 12.54858398 C-2.29143372 11.6212294 -2.29234009 10.69387482 -2.29327393 9.73841858 C-2.28474396 8.89024567 -2.27621399 8.04207275 -2.26742554 7.16819763 C-2.26407385 6.43134955 -2.26072216 5.69450148 -2.25726891 4.93532467 C-2 3 -2 3 0 0 Z " fill="#63CFA6" transform="translate(50,74)"/>
<path d="M0 0 C0.90484669 2.71454006 1.12893139 4.29639183 1.14044189 7.08554077 C1.14615204 7.91544022 1.15186218 8.74533966 1.15774536 9.60038757 C1.15886322 10.50746964 1.15998108 11.4145517 1.16113281 12.34912109 C1.16858017 13.78613625 1.16858017 13.78613625 1.17617798 15.25218201 C1.19080031 18.4259411 1.19760143 21.59965023 1.203125 24.7734375 C1.208876 26.97677614 1.21463374 29.18011476 1.22039795 31.38345337 C1.23090787 36.00531243 1.23675073 40.6271541 1.24023438 45.24902344 C1.24572174 51.17304555 1.26975514 57.09683812 1.29820633 63.02078819 C1.31682325 67.57266921 1.32203779 72.1244948 1.32357025 76.67641068 C1.326599 78.86050294 1.33463495 81.04459418 1.34775543 83.22864914 C1.3647973 86.28330752 1.36294019 89.3374033 1.35644531 92.39208984 C1.37026749 93.74664024 1.37026749 93.74664024 1.3843689 95.1285553 C1.35259581 99.89546691 1.14498558 103.15000061 -2 107 C-2.99 107.495 -2.99 107.495 -4 108 C-4.38881348 107.28521484 -4.77762695 106.57042969 -5.17822266 105.83398438 C-7.20890255 102.67502804 -9.47825603 100.29590169 -12.1484375 97.65625 C-12.64284332 97.16467407 -13.13724915 96.67309814 -13.64663696 96.16662598 C-15.21809077 94.60628912 -16.79635546 93.05305794 -18.375 91.5 C-19.42754684 90.45749902 -20.47963458 89.41453429 -21.53125 88.37109375 C-23.47423726 86.44435764 -25.42030675 84.52094684 -27.36865234 82.59960938 C-29.92264977 80.07641726 -32.46362541 77.54089531 -35 75 C-35.79317627 74.20682373 -36.58635254 73.41364746 -37.40356445 72.59643555 C-43.26904297 66.73095703 -49.13452148 60.86547852 -55 55 C-53.42188036 51.18854317 -51.01935853 48.76571562 -48.12304688 45.86425781 C-47.62853531 45.36624161 -47.13402374 44.8682254 -46.62452698 44.3551178 C-44.99425197 42.71606438 -43.35679915 41.08440634 -41.71875 39.453125 C-40.58267419 38.31570185 -39.4468954 37.17798196 -38.31140137 36.03997803 C-35.93398445 33.65961549 -33.55299452 31.28290118 -31.16943359 28.90869141 C-28.109145 25.85982294 -25.05795651 22.8020296 -22.00936127 19.74147415 C-19.66760239 17.39250369 -17.32112004 15.04829858 -14.97315979 12.70552826 C-13.84571857 11.57942414 -12.71976922 10.45182439 -11.59532166 9.32273102 C-10.02730903 7.74966188 -8.45306824 6.18310914 -6.87695312 4.61816406 C-5.98141724 3.72421936 -5.08588135 2.83027466 -4.16320801 1.90924072 C-2 0 -2 0 0 0 Z " fill="#63CFA6" transform="translate(207,74)"/>
<path d="M0 0 C5.87848487 3.32200464 10.38974002 8.0495951 15.15234375 12.78125 C16.01187149 13.63174927 16.87139923 14.48224854 17.75697327 15.35852051 C19.56407947 17.15116362 21.3684253 18.94659316 23.17016602 20.74462891 C25.94024889 23.50273701 28.72844845 26.24164008 31.51757812 28.98046875 C33.27197766 30.72541273 35.02527242 32.47146832 36.77734375 34.21875 C37.6167601 35.03863403 38.45617645 35.85851807 39.32102966 36.70324707 C40.08254837 37.47084351 40.84406708 38.23843994 41.62866211 39.02929688 C42.3056163 39.70118042 42.9825705 40.37306396 43.68003845 41.06530762 C45 43 45 43 44.82858276 45.10404968 C42.70509438 49.96298309 37.88466649 53.62561055 34.1875 57.3125 C33.27162109 58.25673828 32.35574219 59.20097656 31.41210938 60.17382812 C30.08469727 61.50510742 30.08469727 61.50510742 28.73046875 62.86328125 C27.91989014 63.68094971 27.10931152 64.49861816 26.27416992 65.34106445 C24 67 24 67 22.18458557 66.90911865 C19.02737567 65.59524089 17.17820769 63.53630143 14.77246094 61.11303711 C14.01080627 60.35203957 14.01080627 60.35203957 13.23376465 59.57566833 C11.56009075 57.89990733 9.89728872 56.21377731 8.234375 54.52734375 C7.07489473 53.36226727 5.91474958 52.19785214 4.75396729 51.03407288 C1.70267213 47.97133103 -1.33950625 44.89968669 -4.37988281 41.82611084 C-7.4847856 38.69050356 -10.5982131 35.56338633 -13.7109375 32.43554688 C-19.81567432 26.29864898 -25.91080744 20.15232143 -32 14 C-27.69968041 9.5696866 -23.23002907 7.37440468 -17.6875 4.75 C-16.76259766 4.29109375 -15.83769531 3.8321875 -14.88476562 3.359375 C-9.82020045 0.9404782 -5.72114733 -0.97559151 0 0 Z " fill="#87EEC7" transform="translate(82,60)"/>
<path d="M0 0 C5.58764256 4.66007905 10.79172605 9.60863546 15.9375 14.75 C16.71673828 15.51699219 17.49597656 16.28398437 18.29882812 17.07421875 C19.03423828 17.80769531 19.76964844 18.54117188 20.52734375 19.296875 C21.19499756 19.96041992 21.86265137 20.62396484 22.55053711 21.30761719 C24 23 24 23 24 25 C24.54366211 25.22059082 25.08732422 25.44118164 25.64746094 25.66845703 C28.76199568 27.43129145 31.12426453 29.79943202 33.640625 32.3046875 C34.16767029 32.82507599 34.69471558 33.34546448 35.23773193 33.88162231 C36.34633325 34.98012599 37.45226106 36.08133353 38.55566406 37.18505859 C40.247809 38.87281468 41.95531155 40.54392311 43.6640625 42.21484375 C44.74056075 43.28547646 45.8161149 44.35705946 46.890625 45.4296875 C47.40304749 45.92773895 47.91546997 46.42579041 48.44342041 46.93893433 C51.39914904 49.93355915 52 50.59001458 52 55 C49.06804933 57.73044482 45.53317157 59.66008347 42.125 61.75 C41.2071875 62.35199219 40.289375 62.95398438 39.34375 63.57421875 C38.42851562 64.14269531 37.51328125 64.71117187 36.5703125 65.296875 C35.74289551 65.81604492 34.91547852 66.33521484 34.06298828 66.87011719 C29.49498859 68.55517239 25.78071496 69.21991743 21 68 C16.95470976 65.30550033 13.72126353 61.89005204 10.3984375 58.375 C9.42845013 57.38633491 8.45621141 56.39987408 7.48184204 55.41552734 C4.93724884 52.83295805 2.42413056 50.22179841 -0.08337402 47.60327148 C-2.65295502 44.9309398 -5.25148994 42.28709059 -7.84765625 39.640625 C-12.92703021 34.45436842 -17.9734576 29.23753259 -23 24 C-19.68400925 20.06911864 -16.34860835 16.22284982 -12.6953125 12.59765625 C-11.94765625 11.85322266 -11.2 11.10878906 -10.4296875 10.34179688 C-9.28886719 9.21354492 -9.28886719 9.21354492 -8.125 8.0625 C-7.34125 7.28326172 -6.5575 6.50402344 -5.75 5.70117188 C-3.83561419 3.79845915 -1.91891966 1.89813829 0 0 Z " fill="#62DBAE" transform="translate(151,128)"/>
<path d="M0 0 C0 15.84 0 31.68 0 48 C-7.875 41.25 -7.875 41.25 -11.40234375 37.6953125 C-12.51899414 36.57382813 -12.51899414 36.57382813 -13.65820312 35.4296875 C-14.41037109 34.66914063 -15.16253906 33.90859375 -15.9375 33.125 C-16.71673828 32.34125 -17.49597656 31.5575 -18.29882812 30.75 C-20.20154085 28.83561419 -22.10186171 26.91891966 -24 25 C-22.43809102 21.24794633 -20.10972261 18.8656188 -17.24609375 16.015625 C-16.78517838 15.55516785 -16.324263 15.09471069 -15.84938049 14.62030029 C-14.87924882 13.65317817 -13.90669939 12.68847596 -12.93188477 11.72607422 C-11.43377195 10.24631763 -9.9439157 8.75861398 -8.45507812 7.26953125 C-1.14017532 0 -1.14017532 0 0 0 Z " fill="#0D3C44" transform="translate(176,104)"/>
<path d="M0 0 C7.875 6.75 7.875 6.75 11.40234375 10.3046875 C12.14677734 11.05234375 12.89121094 11.8 13.65820312 12.5703125 C14.41037109 13.33085938 15.16253906 14.09140625 15.9375 14.875 C16.71673828 15.65875 17.49597656 16.4425 18.29882812 17.25 C20.20154085 19.16438581 22.10186171 21.08108034 24 23 C22.43809102 26.75205367 20.10972261 29.1343812 17.24609375 31.984375 C16.55472069 32.67506073 16.55472069 32.67506073 15.84938049 33.37969971 C14.87924882 34.34682183 13.90669939 35.31152404 12.93188477 36.27392578 C11.43377195 37.75368237 9.9439157 39.24138602 8.45507812 40.73046875 C1.14017532 48 1.14017532 48 0 48 C0 32.16 0 16.32 0 0 Z " fill="#0D3C44" transform="translate(80,104)"/>
</svg>
