<svg width="461" height="103" viewBox="0 0 461 103" fill="none" xmlns="http://www.w3.org/2000/svg">
<g clip-path="url(#clip0_406_3959)">
<path fill-rule="evenodd" clip-rule="evenodd" d="M371.299 7.04395C369.348 7.04395 367.695 7.75594 366.354 9.15425C365.015 10.4934 364.342 12.1153 364.342 13.9876C364.342 15.8606 365.015 17.5196 366.353 18.9149L366.423 18.9884H366.449C367.83 20.2809 369.456 20.9313 371.309 20.9313C373.193 20.9313 374.807 20.2582 376.148 18.9185C377.543 17.5244 378.257 15.8744 378.257 13.9876C378.257 12.1057 377.584 10.4934 376.245 9.15425C374.903 7.74578 373.25 7.04395 371.299 7.04395ZM271.248 25.6177C264.672 25.6177 259.044 28.0454 254.388 32.892C249.73 37.7391 247.403 43.7048 247.403 50.7543C247.403 57.8044 249.731 63.7115 254.377 68.6154L254.379 68.6166C259.035 73.4626 264.662 75.8903 271.238 75.8903C277.98 75.8903 283.312 73.5546 287.173 68.8575V74.6713H298.267L298.28 27.0145H287.196L287.183 32.5721C283.322 27.9354 277.989 25.6177 271.248 25.6177ZM191.896 25.7892C186.156 25.7892 182.015 27.725 178.964 31.6198V27.0082H167.87V74.8429H178.964V48.1155C178.964 44.1209 179.918 41.1987 181.739 39.2588L181.742 39.2558C183.581 37.2328 185.955 36.2189 188.885 36.2189C191.584 36.2189 193.597 37.0845 194.982 38.7614L194.988 38.7686C196.442 40.3964 197.215 42.7704 197.215 45.9442V74.8334H208.308V48.1059C208.308 44.042 209.207 41.0893 210.907 39.1494C212.676 37.2064 215.048 36.2189 218.049 36.2189C220.747 36.2189 222.832 37.0839 224.351 38.7781L224.354 38.7811C225.873 40.4191 226.664 42.7817 226.664 45.9538V74.8429H237.328L237.347 74.8334H237.777V45.2962C237.777 39.3921 236.123 34.6424 232.765 31.0931C229.407 27.5439 224.996 25.7892 219.564 25.7892C213.264 25.7892 208.461 28.1106 205.228 32.782C202.254 28.1231 197.79 25.7892 191.896 25.7892ZM414.501 25.7892C408.769 25.7892 404.628 27.7262 401.568 31.6216V27.0082H390.475V74.8429H401.568V48.1155C401.568 44.1209 402.523 41.1987 404.344 39.2588L404.347 39.2558C406.185 37.2328 408.559 36.2189 411.489 36.2189C414.188 36.2189 416.202 37.0839 417.587 38.7614L417.593 38.7686C419.056 40.406 419.819 42.7793 419.819 45.9538V74.8429H430.913V48.1155C430.913 44.0515 431.812 41.0989 433.511 39.1589C435.281 37.2154 437.643 36.2284 440.653 36.2284C443.351 36.2284 445.436 37.0935 446.956 38.7877L446.959 38.7907C448.478 40.4281 449.269 42.7913 449.269 45.9633V74.8519H459.974L459.994 74.8334H460.381V45.2962C460.381 39.3921 458.728 34.6424 455.37 31.0931C452.012 27.5439 447.6 25.7892 442.169 25.7892C435.869 25.7892 431.065 28.1106 427.833 32.782C424.859 28.1231 420.386 25.7892 414.501 25.7892ZM321.719 26.9992H308.796L309.359 27.768L325.848 50.2587L307.861 74.8334H320.873L321.022 74.6486L332.357 59.1501L343.602 74.6397L343.749 74.8429H355.717L355.719 74.8334H356.654L356.09 74.064L338.762 50.3537L355.252 27.768L355.815 26.9992H342.805L332.263 41.4725L321.866 27.2019L321.719 26.9992ZM376.865 27.0082H365.772V74.8429H376.865V27.0082ZM262.584 40.4048C265.299 37.6249 268.706 36.238 272.839 36.238C276.973 36.238 280.379 37.6249 283.095 40.4048L283.166 40.4765H283.176C285.845 43.1793 287.183 46.5893 287.183 50.7543C287.183 54.954 285.822 58.4166 283.106 61.1976C280.39 63.9111 276.984 65.27 272.849 65.27C268.714 65.27 265.308 63.9111 262.592 61.1976C259.875 58.4166 258.505 54.9534 258.505 50.7543C258.505 46.5534 259.866 43.1207 262.581 40.4072L262.584 40.4048Z" fill="black"/>
<path d="M0.400391 8.90967H24.4004V93.3997H0.400391V8.90967Z" fill="url(#paint0_linear_406_3959)"/>
<path d="M96.0352 8.91113H120.035V93.4011H96.0352V8.91113Z" fill="url(#paint1_linear_406_3959)"/>
<path fill-rule="evenodd" clip-rule="evenodd" d="M52.2126 41.5918L91.0787 2.67175C93.5342 0.212491 97.2315 -0.524982 100.444 0.803498L120.035 8.90524L61.0672 67.8744C61.0549 67.8867 61.0424 67.8987 61.0297 67.9103L29.3568 99.6293C26.9013 102.089 23.204 102.826 19.9918 101.498L0.400391 93.3958L52.2126 41.5918ZM59.5714 32.9138L29.3574 2.67958C26.9013 0.216017 23.2016 -0.523905 19.9864 0.80565L0.400391 8.90524L41.1776 49.6128C41.6447 50.0803 42.4026 50.0803 42.8698 49.6128L59.5714 32.9138ZM61.6915 70.3419L91.0787 99.6251C93.5342 102.087 97.2327 102.826 100.447 101.497L120.035 93.3958L79.2503 52.7749C78.7825 52.3075 78.0246 52.3075 77.5574 52.7749L61.6921 68.6531C61.2261 69.1194 61.2261 69.875 61.6915 70.3419Z" fill="url(#paint2_linear_406_3959)"/>
<path opacity="0.7" d="M42.8691 49.6121L59.5707 32.9132L51.4645 24.8403L33.7031 42.1453L41.1769 49.6121C41.6441 50.0796 42.4019 50.0796 42.8691 49.6121Z" fill="url(#paint3_linear_406_3959)"/>
<path opacity="0.7" d="M61.6923 68.6531C61.2264 69.1194 61.2264 69.875 61.6917 70.3419L68.7872 77.3709L87.0762 60.5929L79.2505 52.7749C78.7827 52.3074 78.0249 52.3074 77.5577 52.7749L61.6923 68.6531Z" fill="url(#paint4_linear_406_3959)"/>
</g>
<defs>
<linearGradient id="paint0_linear_406_3959" x1="12.4004" y1="4.91468" x2="12.4004" y2="95.4485" gradientUnits="userSpaceOnUse">
<stop stop-color="#27A576"/>
<stop offset="0.340753" stop-color="#6FD8B0"/>
<stop offset="0.5" stop-color="#6FD8B0"/>
<stop offset="0.655031" stop-color="#6FD8B0"/>
<stop offset="1" stop-color="#28A677"/>
</linearGradient>
<linearGradient id="paint1_linear_406_3959" x1="108.035" y1="4.91615" x2="108.035" y2="95.45" gradientUnits="userSpaceOnUse">
<stop stop-color="#27A576"/>
<stop offset="0.340753" stop-color="#6FD8B0"/>
<stop offset="0.5" stop-color="#6FD8B0"/>
<stop offset="0.655031" stop-color="#6FD8B0"/>
<stop offset="1" stop-color="#28A677"/>
</linearGradient>
<linearGradient id="paint2_linear_406_3959" x1="60.2178" y1="0.1509" x2="60.2178" y2="68.2246" gradientUnits="userSpaceOnUse">
<stop stop-color="#A3FFDC"/>
<stop offset="1" stop-color="#66E0B2"/>
</linearGradient>
<linearGradient id="paint3_linear_406_3959" x1="48.4574" y1="45.4222" x2="41.6299" y2="38.3618" gradientUnits="userSpaceOnUse">
<stop stop-color="#36B082"/>
<stop offset="1" stop-color="#36B082" stop-opacity="0"/>
</linearGradient>
<linearGradient id="paint4_linear_406_3959" x1="66.6423" y1="64.6001" x2="74.3638" y2="72.5693" gradientUnits="userSpaceOnUse">
<stop stop-color="#36B082"/>
<stop offset="1" stop-color="#36B082" stop-opacity="0"/>
</linearGradient>
<clipPath id="clip0_406_3959">
<rect width="461" height="103" fill="white"/>
</clipPath>
</defs>
</svg>
